# xmcd
# 
# Track frame offsets:
#     150
#     22273
#     37423
#     64523
#     92445
#     118860
#     134890
#     157855
#     180938
#     203230
#     230798
# 
# Disc length: 3238
# 
# Revision: 2
# Processed by: cddbd v1.5.2PL0 Copyright (c) Steve Scherf et al.
# Submitted via: fre:ac v1.0.17
# 
DISCID=9c0ca40b
DTITLE=Bill Evans - RIVERSIDE YEARS [disc2]
DYEAR=2001
DGENRE=Jazz
TTITLE0=SOMEDAY MY PRINCE WILL COME いつか王子様が
TTITLE1=COME RAIN OR COME SHINE 降っても晴れても
TTITLE2=AUTUMN LEAVES 枯葉
TTITLE3=ISRAEL
TTITLE4=NARDIS
TTITLE5=HOW DEEP IS THE OCEAN?
TTITLE6=BEAUTIFUL LOVE(take2)
TTITLE7=SPRING IS HERE 
TTITLE8=I SHOULD CARE 
TTITLE9=IT MIGHT AS WELL BE SPRING 春の如く
TTITLE10=I FALL IN LOVE TOO EASILY
EXTD=YEAR: 2001
EXTT0=
EXTT1=
EXTT2=
EXTT3=
EXTT4=
EXTT5=
EXTT6=
EXTT7=
EXTT8=
EXTT9=
EXTT10=
PLAYORDER=
